<svg width="500" height="136" viewBox="0 0 500 136" fill="none" xmlns="http://www.w3.org/2000/svg">
<path d="M33.801 55.5619C21.8839 55.5619 0 70.5504 0 70.5504V136H500V20.5888C500 20.5888 478.954 29.744 469.388 26.5843C455.902 22.1301 443.24 0.754123 434.949 0.104534C422.194 -0.89483 426.02 5.60042 399.872 5.6004C375 5.60038 386.185 18.5904 361.607 18.5904C348.15 18.5904 328.444 29.5848 328.444 29.5848H289.541C271.046 29.5848 267.276 61.9031 246.811 59.5617C226.976 57.2922 227.679 52.0646 211.735 52.0646C196.14 52.0646 193.738 59.7107 177.934 58.06C158.801 56.0615 159.439 34.5781 133.291 34.5781C101.403 34.5781 95.6633 61.0577 70.1531 63.0561C51.4237 64.5234 54.3698 55.5619 33.801 55.5619Z" fill="url(#paint0_linear_1_442)"/>
<defs>
<linearGradient id="paint0_linear_1_442" x1="250" y1="0" x2="250" y2="136" gradientUnits="userSpaceOnUse">
<stop stop-color="#6EDCB5" stop-opacity="0.4"/>
<stop offset="1" stop-color="#6EDCB5" stop-opacity="0"/>
</linearGradient>
</defs>
</svg>
